<?xml version="1.0" encoding="UTF-8"?>
<svg id="Layer_2" data-name="Layer 2" xmlns="http://www.w3.org/2000/svg" viewBox="0 0 619.98 148.22">
  <defs>
    <style>
      .cls-1 {
        fill: #0076f8;
      }
    </style>
  </defs>
  <g id="Layer_1-2" data-name="Layer 1">
    <g>
      <g>
        <g>
          <path d="m170.78,73.87V14.67h12.56l17.6,44.16,17.68-44.16h12.72v59.2h-12.56v-12.4c0-12.8,0-15.6.64-20l-12.56,32.4h-11.84l-12.48-32.4c.72,4.4.8,9.36.8,15.84v16.56h-12.56Z"/>
          <path d="m239.98,53.79c0-12.48,8.4-21.2,20.48-21.2s20.4,8.24,20.4,21.28v3.12l-29.04.16c.72,5.28,3.68,7.76,9.12,7.76,4.64,0,7.92-1.68,8.8-4.56h11.28c-1.44,8.88-9.36,14.56-20.32,14.56-12.08,0-20.72-8.8-20.72-21.12Zm12-4.24h16.64c0-4.24-3.12-6.96-8.08-6.96s-7.6,2.16-8.56,6.96Z"/>
          <path d="m291.58,73.87v-29.76h-7.6v-10.24h7.6v-12.4h12.32v12.4h7.6v10.24h-7.6v29.76h-12.32Z"/>
          <path d="m315.34,62.11c0-7.36,5.2-11.92,14.8-12.64l11.2-.88v-.64c0-3.92-2.4-6-6.8-6-5.2,0-8,2-8,5.6h-10.24c0-9.04,7.44-14.96,18.88-14.96s18.16,6.48,18.16,17.92v23.36h-10.88l-.8-5.28c-1.28,3.68-6.56,6.32-12.56,6.32-8.48,0-13.76-4.96-13.76-12.8Zm26.08-3.2v-2.16l-6.24.56c-5.36.48-7.28,1.68-7.28,4.24,0,2.88,1.76,4.24,5.52,4.24,4.72,0,8-2.32,8-6.88Z"/>
          <path d="m360.38,44.35c0-18.48,11.76-30.64,29.44-30.64,14.8,0,25.44,8.48,27.28,21.76h-13.68c-1.76-5.92-6.8-9.28-13.92-9.28-9.6,0-15.44,6.8-15.44,18.08s5.92,18.08,15.44,18.08c7.28,0,12.64-3.6,14.24-9.44h13.44c-2.08,13.2-13.12,21.92-27.92,21.92-17.76,0-28.88-11.76-28.88-30.48Z"/>
          <path d="m444.22,32.67c12.72,0,22,8.48,22,21.12s-9.28,21.04-22,21.04-22.08-8.4-22.08-21.04,9.28-21.12,22.08-21.12Zm0,31.12c5.68,0,9.6-4,9.6-10.08s-3.92-10-9.6-10-9.68,4-9.68,10,3.92,10.08,9.68,10.08Z"/>
          <path d="m500.86,45.47h-3.92c-7.04,0-11.28,3.12-11.28,11.04v17.36h-12.32v-39.92h11.6l.64,5.92c1.68-3.92,5.2-6.56,10.56-6.56,1.44,0,3.04.16,4.72.56v11.6Z"/>
          <path d="m512.54,73.87v-29.76h-7.6v-10.24h7.6v-12.4h12.32v12.4h7.6v10.24h-7.6v29.76h-12.32Z"/>
          <path d="m535.42,53.79c0-12.48,8.4-21.2,20.48-21.2s20.4,8.24,20.4,21.28v3.12l-29.04.16c.72,5.28,3.68,7.76,9.12,7.76,4.64,0,7.92-1.68,8.8-4.56h11.28c-1.44,8.88-9.36,14.56-20.32,14.56-12.08,0-20.72-8.8-20.72-21.12Zm12-4.24h16.64c0-4.24-3.12-6.96-8.08-6.96s-7.6,2.16-8.56,6.96Z"/>
          <path d="m577.74,73.87l13.44-19.36-13.44-20.64h14.24l7.36,12.16,6.88-12.16h13.76l-13.2,20.4,12.72,19.6h-14.16l-6.88-11.52-6.72,11.52h-14Z"/>
        </g>
        <g>
          <path d="m170.78,136.32v-45.75h8.09v45.75h-8.09Z"/>
          <path d="m204.11,136.32v-38.38h-14.3v-7.38h36.63v7.38h-14.3v38.38h-8.03Z"/>
          <path d="m277.56,136.83c-3.06,0-5.94-.46-8.64-1.39-2.7-.93-4.95-2.41-6.76-4.46-1.81-2.05-3-4.73-3.56-8.06h8.22c.52,1.68,1.35,3,2.49,3.95,1.14.95,2.49,1.61,4.04,1.97,1.55.37,3.13.55,4.72.55,1.42,0,2.77-.18,4.04-.55,1.27-.37,2.33-.98,3.17-1.84.84-.86,1.26-2.01,1.26-3.43,0-1.08-.23-1.95-.68-2.62-.45-.67-1.08-1.23-1.88-1.68-.8-.45-1.76-.81-2.88-1.07-1.08-.34-2.24-.65-3.49-.91-1.25-.26-2.48-.54-3.69-.84-1.21-.3-2.35-.69-3.43-1.16-1.38-.48-2.71-1.02-3.98-1.65-1.27-.62-2.37-1.39-3.3-2.3-.93-.91-1.67-2.03-2.23-3.37-.56-1.34-.84-2.93-.84-4.79,0-2.11.36-3.94,1.07-5.47s1.66-2.79,2.85-3.79c1.19-.99,2.52-1.77,4.01-2.33,1.49-.56,3.04-.97,4.66-1.23s3.16-.39,4.63-.39c2.85,0,5.45.48,7.8,1.42s4.28,2.42,5.79,4.4,2.37,4.53,2.59,7.64h-7.83c-.17-1.47-.69-2.64-1.55-3.53-.86-.88-1.94-1.53-3.24-1.94-1.29-.41-2.7-.61-4.21-.61-1.04,0-2.06.09-3.07.26-1.01.17-1.92.48-2.72.91-.8.43-1.45,1-1.94,1.72-.5.71-.74,1.61-.74,2.69,0,.95.24,1.78.71,2.49.47.71,1.13,1.3,1.97,1.78s1.84.91,3.01,1.29c1.51.6,3.16,1.06,4.95,1.36s3.48.71,5.08,1.23c1.55.43,2.99.96,4.3,1.59s2.45,1.38,3.4,2.26c.95.88,1.69,1.96,2.23,3.24.54,1.27.81,2.79.81,4.56,0,2.59-.46,4.78-1.39,6.57-.93,1.79-2.2,3.25-3.82,4.37s-3.45,1.93-5.5,2.43-4.2.74-6.44.74Z"/>
          <path d="m328.49,136.83c-4.7,0-8.7-.99-12.01-2.98-3.3-1.98-5.82-4.75-7.57-8.28-1.75-3.54-2.62-7.57-2.62-12.1s.88-8.68,2.65-12.2c1.77-3.52,4.31-6.28,7.64-8.28,3.32-2.01,7.33-3.01,12.04-3.01s8.7.99,12.01,2.98c3.3,1.99,5.83,4.74,7.6,8.25,1.77,3.52,2.65,7.56,2.65,12.13s-.87,8.57-2.62,12.1c-1.75,3.54-4.29,6.32-7.64,8.35-3.34,2.03-7.39,3.04-12.13,3.04Zm.13-7.51c3.28,0,5.95-.75,8.03-2.27,2.07-1.51,3.59-3.47,4.56-5.89.97-2.41,1.46-4.98,1.46-7.7,0-2.07-.27-4.05-.81-5.95-.54-1.9-1.38-3.6-2.52-5.11-1.14-1.51-2.6-2.71-4.37-3.59-1.77-.88-3.88-1.33-6.34-1.33-3.24,0-5.9.75-7.99,2.26-2.09,1.51-3.64,3.47-4.63,5.89-.99,2.42-1.49,5.03-1.49,7.83s.5,5.35,1.49,7.77c.99,2.42,2.53,4.37,4.63,5.86,2.09,1.49,4.76,2.23,7.99,2.23Z"/>
          <path d="m363.77,136.32v-45.75h8.09v38.38h23.82v7.38h-31.91Z"/>
          <path d="m425.57,136.83c-4.36,0-7.94-.85-10.74-2.56-2.81-1.7-4.88-4.11-6.21-7.22-1.34-3.11-2.01-6.77-2.01-11v-25.5h8.09v25.69c0,2.33.33,4.5,1,6.5.67,2.01,1.81,3.61,3.43,4.82,1.62,1.21,3.81,1.81,6.57,1.81s4.97-.61,6.5-1.84,2.61-2.84,3.24-4.82c.62-1.98.94-4.14.94-6.47v-25.69h8.16v25.5c0,4.19-.67,7.83-2.01,10.94-1.34,3.11-3.39,5.52-6.15,7.25-2.76,1.73-6.36,2.59-10.81,2.59Z"/>
          <path d="m469.45,136.32v-38.38h-14.3v-7.38h36.63v7.38h-14.3v38.38h-8.03Z"/>
          <path d="m502.71,136.32v-45.75h8.09v45.75h-8.09Z"/>
          <path d="m545.88,136.83c-4.7,0-8.71-.99-12.01-2.98-3.3-1.98-5.82-4.75-7.57-8.28-1.75-3.54-2.62-7.57-2.62-12.1s.88-8.68,2.65-12.2c1.77-3.52,4.31-6.28,7.64-8.28,3.32-2.01,7.33-3.01,12.04-3.01s8.7.99,12.01,2.98c3.3,1.99,5.84,4.74,7.61,8.25,1.77,3.52,2.65,7.56,2.65,12.13s-.87,8.57-2.62,12.1c-1.75,3.54-4.3,6.32-7.64,8.35-3.34,2.03-7.39,3.04-12.13,3.04Zm.13-7.51c3.28,0,5.95-.75,8.02-2.27,2.07-1.51,3.59-3.47,4.56-5.89.97-2.41,1.46-4.98,1.46-7.7,0-2.07-.27-4.05-.81-5.95-.54-1.9-1.38-3.6-2.53-5.11-1.14-1.51-2.6-2.71-4.37-3.59-1.77-.88-3.88-1.33-6.34-1.33-3.24,0-5.9.75-7.99,2.26-2.09,1.51-3.64,3.47-4.63,5.89-.99,2.42-1.49,5.03-1.49,7.83s.5,5.35,1.49,7.77c.99,2.42,2.53,4.37,4.63,5.86,2.09,1.49,4.76,2.23,7.99,2.23Z"/>
          <path d="m581.15,136.32v-45.75h8.67l22.07,33.33v-33.33h8.09v45.75h-8.48l-22.26-33.14v33.14h-8.09Z"/>
        </g>
      </g>
      <path class="cls-1" d="m93.92,27.38c-2.86-.18-5.66.88-7.69,2.91l-13.81,13.81L34.2,5.86C30.45,2.11,25.36,0,20.05,0h-8.27C5.27,0,0,5.27,0,11.78h0s28.34,28.34,28.34,28.34v-.02l24.04,24.04,5.9,5.9c7.81,7.81,20.47,7.81,28.28,0l5.9-5.9,14.07-14.07c1.88-1.88,2.93-4.42,2.93-7.07v-14.66l-15.54-.96Zm42.93,21.96h-16.34c-3.31,0-6,2.69-6,6v21.46c0,11.89-4.82,22.67-12.62,30.46-7.8,7.8-18.57,12.62-30.47,12.62-23.79,0-43.08-19.29-43.08-43.08v-25.61L0,22.85v53.95c0,19.72,7.99,37.57,20.92,50.5,12.93,12.93,30.78,20.92,50.5,20.92,39.45,0,71.43-31.98,71.43-71.42v-21.46c0-3.31-2.69-6-6-6Zm0-49.34h-16.35c-3.31,0-6,2.69-6,6v16.34c0,3.32,2.69,6,6,6h16.35c3.31,0,6-2.68,6-6V6c0-3.31-2.69-6-6-6Z"/>
      <path class="cls-1" d="m93.92,27.38c-2.86-.18-5.66.88-7.69,2.91l-13.81,13.81L34.2,5.86C30.45,2.11,25.36,0,20.05,0h-8.27C5.27,0,0,5.27,0,11.78h0s28.34,28.34,28.34,28.34v-.02l24.04,24.04,5.9,5.9c7.81,7.81,20.47,7.81,28.28,0l5.9-5.9,14.07-14.07c1.88-1.88,2.93-4.42,2.93-7.07v-14.66l-15.54-.96Zm42.93,21.96h-16.34c-3.31,0-6,2.69-6,6v21.46c0,11.89-4.82,22.67-12.62,30.46-7.8,7.8-18.57,12.62-30.47,12.62-23.79,0-43.08-19.29-43.08-43.08v-25.61L0,22.85v53.95c0,19.72,7.99,37.57,20.92,50.5,12.93,12.93,30.78,20.92,50.5,20.92,39.45,0,71.43-31.98,71.43-71.42v-21.46c0-3.31-2.69-6-6-6Zm0-49.34h-16.35c-3.31,0-6,2.69-6,6v16.34c0,3.32,2.69,6,6,6h16.35c3.31,0,6-2.68,6-6V6c0-3.31-2.69-6-6-6Z"/>
    </g>
  </g>
</svg>