<?xml version="1.0" encoding="UTF-8"?>
<svg id="Layer_2" data-name="Layer 2" xmlns="http://www.w3.org/2000/svg" viewBox="0 0 545.81 148.22">
  <defs>
    <style>
      .cls-1 {
        fill: #021730;
      }

      .cls-2 {
        fill: #0076f8;
      }
    </style>
  </defs>
  <g id="Layer_1-2" data-name="Layer 1">
    <g>
      <path class="cls-1" d="m219.65,16.54l-17.68,44.17-17.6-44.17h-12.56v59.21h12.56v-16.56c0-6.49-.08-11.45-.8-15.84l12.48,32.4h11.84l12.56-32.4c-.64,4.39-.64,7.2-.64,20v12.4h12.56V16.54h-12.72Zm51.12,45.69c-.88,2.88-4.16,4.56-8.8,4.56-5.44,0-8.4-2.48-9.12-7.77l29.04-.16v-3.11c0-13.05-7.84-21.29-20.4-21.29s-20.48,8.73-20.48,21.21,8.64,21.12,20.72,21.12c10.96,0,18.88-5.68,20.32-14.56h-11.28Zm-9.2-17.76c4.96,0,8.08,2.72,8.08,6.96h-16.64c.96-4.81,3.68-6.96,8.56-6.96Zm43.36-8.73v-12.4h-12.32v12.4h-7.6v10.24h7.6v29.77h12.32v-29.77h7.6v-10.24h-7.6Zm31.28-1.28c-11.44,0-18.88,5.93-18.88,14.97h10.24c0-3.61,2.8-5.61,8-5.61,4.4,0,6.8,2.08,6.8,6v.65l-11.2.88c-9.6.71-14.8,5.28-14.8,12.63,0,7.85,5.28,12.81,13.76,12.81,6,0,11.28-2.64,12.56-6.32l.8,5.28h10.88v-23.36c0-11.45-6.56-17.93-18.16-17.93Zm6.24,26.33c0,4.56-3.28,6.88-8,6.88-3.76,0-5.52-1.36-5.52-4.24,0-2.56,1.92-3.76,7.28-4.24l6.24-.56v2.16Zm62.32-6.01c-1.6,5.85-6.96,9.45-14.24,9.45-9.52,0-15.44-6.96-15.44-18.08s5.84-18.09,15.44-18.09c7.12,0,12.16,3.36,13.92,9.29h13.68c-1.84-13.29-12.48-21.77-27.28-21.77-17.68,0-29.44,12.16-29.44,30.65s11.12,30.48,28.88,30.48c14.8,0,25.84-8.72,27.92-21.93h-13.44Zm40.48-20.24c-12.8,0-22.08,8.48-22.08,21.13s9.28,21.04,22.08,21.04,22-8.4,22-21.04-9.28-21.13-22-21.13Zm0,31.13c-5.76,0-9.68-4-9.68-10.08s3.92-10.01,9.68-10.01,9.6,4.01,9.6,10.01-3.92,10.08-9.6,10.08Zm51.92-30.48c-5.36,0-8.88,2.63-10.56,6.55l-.64-5.92h-11.6v39.93h12.32v-17.36c0-7.92,4.24-11.04,11.28-11.04h3.92v-11.61c-1.68-.4-3.28-.55-4.72-.55Zm37.36,27.04c-.88,2.88-4.16,4.56-8.8,4.56-5.44,0-8.4-2.48-9.12-7.77l29.04-.16v-3.11c0-13.05-7.84-21.29-20.4-21.29s-20.48,8.73-20.48,21.21,8.64,21.12,20.72,21.12c10.96,0,18.88-5.68,20.32-14.56h-11.28Zm-9.2-17.76c4.96,0,8.08,2.72,8.08,6.96h-16.64c.96-4.81,3.68-6.96,8.56-6.96Zm-354.55,53.87v33.93h6v-33.93h-6Zm14.11,0v5.47h10.61v28.46h5.95v-28.46h10.61v-5.47h-27.17Zm77.21,20.47c-.4-.95-.95-1.75-1.66-2.4-.7-.66-1.54-1.22-2.52-1.68-.97-.47-2.04-.86-3.19-1.18-1.18-.38-2.44-.69-3.77-.91-1.32-.22-2.55-.56-3.67-1.01-.86-.29-1.61-.61-2.23-.96-.62-.35-1.11-.79-1.46-1.32-.36-.53-.53-1.14-.53-1.85,0-.8.18-1.46.55-1.99.37-.53.85-.95,1.44-1.27.59-.32,1.26-.55,2.02-.67.75-.13,1.51-.2,2.28-.2,1.12,0,2.16.16,3.12.46.96.31,1.76.79,2.4,1.44.64.66,1.02,1.53,1.15,2.62h5.81c-.16-2.31-.8-4.2-1.92-5.67-1.12-1.47-2.56-2.56-4.3-3.26s-3.67-1.06-5.78-1.06c-1.09,0-2.24.1-3.44.29-1.2.19-2.35.5-3.45.91-1.11.42-2.1,1-2.98,1.73-.88.74-1.58,1.67-2.11,2.81-.53,1.13-.79,2.49-.79,4.05,0,1.38.21,2.57.62,3.56.42.99.97,1.82,1.66,2.49.69.67,1.5,1.24,2.45,1.71.94.46,1.92.87,2.95,1.22.8.35,1.65.64,2.54.86.9.23,1.81.44,2.74.63.93.19,1.79.42,2.59.67.83.19,1.54.46,2.14.79.59.34,1.05.76,1.39,1.25.33.5.5,1.15.5,1.94,0,1.06-.31,1.91-.93,2.55-.63.64-1.41,1.1-2.36,1.37-.94.27-1.94.41-3,.41-1.18,0-2.35-.14-3.5-.41-1.15-.27-2.15-.76-3-1.47-.85-.7-1.46-1.68-1.85-2.92h-6.09c.41,2.46,1.29,4.45,2.64,5.97,1.34,1.52,3.01,2.63,5.01,3.31,2,.69,4.14,1.03,6.41,1.03,1.66,0,3.26-.18,4.78-.55,1.52-.36,2.88-.96,4.08-1.8,1.2-.83,2.14-1.91,2.83-3.24.69-1.32,1.03-2.95,1.03-4.87,0-1.31-.2-2.44-.6-3.38Zm40.3-12.58c-1.32-2.61-3.2-4.65-5.64-6.12-2.45-1.47-5.42-2.21-8.91-2.21s-6.46.75-8.93,2.24c-2.46,1.48-4.35,3.53-5.66,6.14-1.31,2.61-1.97,5.62-1.97,9.05s.65,6.35,1.95,8.97c1.29,2.63,3.16,4.68,5.61,6.15,2.45,1.47,5.42,2.2,8.91,2.2s6.52-.75,9-2.25,4.36-3.57,5.66-6.19c1.3-2.63,1.94-5.62,1.94-8.98s-.65-6.39-1.96-9Zm-5.21,14.81c-.72,1.79-1.85,3.25-3.39,4.37-1.53,1.12-3.52,1.68-5.95,1.68s-4.37-.56-5.93-1.66c-1.55-1.1-2.69-2.55-3.43-4.34-.73-1.79-1.1-3.71-1.1-5.76s.37-4.02,1.1-5.81c.74-1.79,1.88-3.25,3.43-4.37,1.56-1.12,3.53-1.68,5.93-1.68,1.83,0,3.39.33,4.71.98,1.31.66,2.39,1.55,3.24,2.67.84,1.12,1.47,2.38,1.87,3.79.4,1.41.6,2.88.6,4.42,0,2.01-.36,3.92-1.08,5.71Zm22.73,5.76v-28.46h-6v33.93h23.66v-5.47h-17.66Zm47.85-28.46v19.05c0,1.73-.23,3.33-.69,4.8-.47,1.47-1.27,2.67-2.4,3.58-1.14.91-2.75,1.37-4.83,1.37s-3.67-.45-4.87-1.35c-1.2-.89-2.05-2.09-2.55-3.57-.49-1.49-.74-3.1-.74-4.83v-19.05h-6v18.91c0,3.13.5,5.85,1.49,8.16.99,2.3,2.53,4.09,4.61,5.35,2.08,1.26,4.73,1.89,7.97,1.89s5.96-.63,8.01-1.92c2.05-1.27,3.57-3.07,4.56-5.37.99-2.3,1.49-5.01,1.49-8.11v-18.91h-6.05Zm13.92,0v5.47h10.61v28.46h5.95v-28.46h10.61v-5.47h-27.17Zm35.28,0v33.93h6v-33.93h-6Zm46.66,7.89c-1.32-2.61-3.2-4.65-5.64-6.12-2.45-1.47-5.42-2.21-8.91-2.21s-6.46.75-8.93,2.24c-2.46,1.48-4.35,3.53-5.66,6.14-1.31,2.61-1.97,5.62-1.97,9.05s.65,6.35,1.95,8.97c1.29,2.63,3.16,4.68,5.61,6.15,2.45,1.47,5.42,2.2,8.91,2.2s6.52-.75,9-2.25c2.47-1.5,4.36-3.57,5.66-6.19,1.3-2.63,1.94-5.62,1.94-8.98s-.65-6.39-1.96-9Zm-5.21,14.81c-.72,1.79-1.85,3.25-3.39,4.37-1.53,1.12-3.52,1.68-5.95,1.68s-4.38-.56-5.93-1.66c-1.55-1.1-2.69-2.55-3.43-4.34-.73-1.79-1.1-3.71-1.1-5.76s.37-4.02,1.1-5.81c.74-1.79,1.88-3.25,3.43-4.37,1.55-1.12,3.53-1.68,5.93-1.68,1.83,0,3.39.33,4.7.98,1.32.66,2.4,1.55,3.25,2.67.84,1.12,1.47,2.38,1.87,3.79.4,1.41.6,2.88.6,4.42,0,2.01-.36,3.92-1.08,5.71Zm39.53-22.7v24.72l-16.37-24.72h-6.43v33.93h6v-24.58l16.51,24.58h6.29v-33.93h-6Zm42.16,20.47c-.4-.95-.95-1.75-1.65-2.4-.71-.66-1.55-1.22-2.52-1.68-.98-.47-2.04-.86-3.19-1.18-1.19-.38-2.44-.69-3.77-.91-1.33-.22-2.55-.56-3.67-1.01-.87-.29-1.61-.61-2.24-.96-.62-.35-1.11-.79-1.46-1.32-.35-.53-.53-1.14-.53-1.85,0-.8.19-1.46.55-1.99.37-.53.85-.95,1.44-1.27.6-.32,1.27-.55,2.02-.67.75-.13,1.51-.2,2.28-.2,1.12,0,2.16.16,3.12.46.96.31,1.76.79,2.4,1.44.64.66,1.02,1.53,1.15,2.62h5.81c-.16-2.31-.8-4.2-1.92-5.67-1.12-1.47-2.55-2.56-4.3-3.26-1.74-.7-3.67-1.06-5.78-1.06-1.09,0-2.23.1-3.43.29s-2.35.5-3.46.91c-1.1.42-2.09,1-2.97,1.73-.88.74-1.59,1.67-2.12,2.81-.52,1.13-.79,2.49-.79,4.05,0,1.38.21,2.57.63,3.56.41.99.96,1.82,1.65,2.49.69.67,1.51,1.24,2.45,1.71.94.46,1.93.87,2.95,1.22.8.35,1.65.64,2.55.86.89.23,1.8.44,2.73.63s1.79.42,2.59.67c.84.19,1.55.46,2.14.79.59.34,1.06.76,1.39,1.25.34.5.51,1.15.51,1.94,0,1.06-.32,1.91-.94,2.55-.62.64-1.41,1.1-2.35,1.37-.95.27-1.95.41-3,.41-1.19,0-2.35-.14-3.51-.41-1.15-.27-2.15-.76-3-1.47-.84-.7-1.46-1.68-1.84-2.92h-6.1c.42,2.46,1.3,4.45,2.64,5.97,1.34,1.52,3.02,2.63,5.02,3.31,2,.69,4.13,1.03,6.4,1.03,1.67,0,3.26-.18,4.78-.55,1.52-.36,2.88-.96,4.08-1.8,1.2-.83,2.14-1.91,2.83-3.24.69-1.32,1.03-2.95,1.03-4.87,0-1.31-.2-2.44-.6-3.38Z"/>
      <path class="cls-2" d="m93.92,27.38c-2.86-.18-5.66.88-7.69,2.91l-13.81,13.81L34.2,5.86C30.45,2.11,25.36,0,20.05,0h-8.27C5.27,0,0,5.27,0,11.78h0s28.34,28.34,28.34,28.34v-.02l24.04,24.04,5.9,5.9c7.81,7.81,20.47,7.81,28.28,0l5.9-5.9,14.07-14.07c1.88-1.88,2.93-4.42,2.93-7.07v-14.66l-15.54-.96Zm42.93,21.96h-16.34c-3.31,0-6,2.69-6,6v21.46c0,11.89-4.82,22.67-12.62,30.46-7.8,7.8-18.57,12.62-30.47,12.62-23.79,0-43.08-19.29-43.08-43.08v-25.61L0,22.85v53.95c0,19.72,7.99,37.57,20.92,50.5s30.78,20.92,50.5,20.92c39.45,0,71.43-31.98,71.43-71.42v-21.46c0-3.31-2.69-6-6-6Zm0-49.34h-16.35c-3.31,0-6,2.69-6,6v16.34c0,3.32,2.69,6,6,6h16.35c3.31,0,6-2.68,6-6V6c0-3.31-2.69-6-6-6Z"/>
      <path class="cls-2" d="m93.92,27.38c-2.86-.18-5.66.88-7.69,2.91l-13.81,13.81L34.2,5.86C30.45,2.11,25.36,0,20.05,0h-8.27C5.27,0,0,5.27,0,11.78h0s28.34,28.34,28.34,28.34v-.02l24.04,24.04,5.9,5.9c7.81,7.81,20.47,7.81,28.28,0l5.9-5.9,14.07-14.07c1.88-1.88,2.93-4.42,2.93-7.07v-14.66l-15.54-.96Zm42.93,21.96h-16.34c-3.31,0-6,2.69-6,6v21.46c0,11.89-4.82,22.67-12.62,30.46-7.8,7.8-18.57,12.62-30.47,12.62-23.79,0-43.08-19.29-43.08-43.08v-25.61L0,22.85v53.95c0,19.72,7.99,37.57,20.92,50.5s30.78,20.92,50.5,20.92c39.45,0,71.43-31.98,71.43-71.42v-21.46c0-3.31-2.69-6-6-6Zm0-49.34h-16.35c-3.31,0-6,2.69-6,6v16.34c0,3.32,2.69,6,6,6h16.35c3.31,0,6-2.68,6-6V6c0-3.31-2.69-6-6-6Z"/>
    </g>
  </g>
</svg>