<?xml version="1.0" encoding="UTF-8"?>
<svg id="Layer_2" data-name="Layer 2" xmlns="http://www.w3.org/2000/svg" viewBox="0 0 142.85 148.22">
  <defs>
    <style>
      .cls-1 {
        fill: #fff;
      }
    </style>
  </defs>
  <g id="Layer_1-2" data-name="Layer 1">
    <g>
      <path class="cls-1" d="m93.92,27.38c-2.86-.18-5.66.88-7.69,2.91l-13.81,13.81L34.2,5.86C30.45,2.11,25.36,0,20.05,0h-8.27C5.27,0,0,5.27,0,11.78h0s28.34,28.34,28.34,28.34v-.02l24.04,24.04,5.9,5.9c7.81,7.81,20.47,7.81,28.28,0l5.9-5.9,14.07-14.07c1.88-1.88,2.93-4.42,2.93-7.07v-14.66l-15.54-.96Zm42.93,21.96h-16.34c-3.31,0-6,2.69-6,6v21.46c0,11.89-4.82,22.67-12.62,30.46-7.8,7.8-18.57,12.62-30.47,12.62-23.79,0-43.08-19.29-43.08-43.08v-25.61L0,22.85v53.95c0,19.72,7.99,37.57,20.92,50.5s30.78,20.92,50.5,20.92c39.45,0,71.43-31.98,71.43-71.42v-21.46c0-3.31-2.69-6-6-6Zm0-49.34h-16.35c-3.31,0-6,2.69-6,6v16.34c0,3.32,2.69,6,6,6h16.35c3.31,0,6-2.68,6-6V6c0-3.31-2.69-6-6-6Z"/>
      <path class="cls-1" d="m93.92,27.38c-2.86-.18-5.66.88-7.69,2.91l-13.81,13.81L34.2,5.86C30.45,2.11,25.36,0,20.05,0h-8.27C5.27,0,0,5.27,0,11.78h0s28.34,28.34,28.34,28.34v-.02l24.04,24.04,5.9,5.9c7.81,7.81,20.47,7.81,28.28,0l5.9-5.9,14.07-14.07c1.88-1.88,2.93-4.42,2.93-7.07v-14.66l-15.54-.96Zm42.93,21.96h-16.34c-3.31,0-6,2.69-6,6v21.46c0,11.89-4.82,22.67-12.62,30.46-7.8,7.8-18.57,12.62-30.47,12.62-23.79,0-43.08-19.29-43.08-43.08v-25.61L0,22.85v53.95c0,19.72,7.99,37.57,20.92,50.5s30.78,20.92,50.5,20.92c39.45,0,71.43-31.98,71.43-71.42v-21.46c0-3.31-2.69-6-6-6Zm0-49.34h-16.35c-3.31,0-6,2.69-6,6v16.34c0,3.32,2.69,6,6,6h16.35c3.31,0,6-2.68,6-6V6c0-3.31-2.69-6-6-6Z"/>
    </g>
  </g>
</svg>